HIERARCHY
ROOT SpineBase
{
  OFFSET 0.000000 0.000000 0.000000
  CHANNELS 6 Xposition Yposition Zposition Zrotation Xrotation Yrotation
  JOINT SpineMid
  {
    OFFSET 0.000000 31.826476 0.000000
    CHANNELS 3 Zrotation Xrotation Yrotation
    JOINT SpineShoulder
    {
      OFFSET 0.044521 23.621744 -0.798117
      CHANNELS 3 Zrotation Xrotation Yrotation
      JOINT Neck
      {
        OFFSET 0.030826 7.799337 -0.588576
        CHANNELS 3 Zrotation Xrotation Yrotation
        JOINT Head
        {
          OFFSET 6.862073 11.837269 5.606522
          CHANNELS 3 Zrotation Xrotation Yrotation
          End Site
          {
            OFFSET 0 0 0
          }
        }
      }
      JOINT ShoulderLeft
      {
        OFFSET -10.003778 -2.779326 -13.636479
        CHANNELS 3 Zrotation Xrotation Yrotation
        JOINT ElbowLeft
        {
          OFFSET -7.830733 -27.253258 -7.250450
          CHANNELS 3 Zrotation Xrotation Yrotation
          JOINT WristLeft
          {
            OFFSET 3.156197 -23.512157 -4.392234
            CHANNELS 3 Zrotation Xrotation Yrotation
            JOINT HandLeft
            {
              OFFSET 1.270832 -7.702570 1.872557
              CHANNELS 3 Zrotation Xrotation Yrotation
              JOINT HandTipLeft
              {
                OFFSET 0.669194 -7.005698 1.028167
                CHANNELS 3 Zrotation Xrotation Yrotation
                End Site
                {
                  OFFSET 0 0 0
                }
              }
              JOINT ThumbLeft
              {
                OFFSET 4.133776 1.381785 4.676349
                CHANNELS 3 Zrotation Xrotation Yrotation
                End Site
                {
                  OFFSET 0 0 0
                }
              }
            }
          }
        }
      }
      JOINT ShoulderRight
      {
        OFFSET 10.386758 -6.921833 10.025554
        CHANNELS 3 Zrotation Xrotation Yrotation
        JOINT ElbowRight
        {
          OFFSET 2.084686 -30.184782 8.199953
          CHANNELS 3 Zrotation Xrotation Yrotation
          JOINT WristRight
          {
            OFFSET 3.307730 -23.652358 -1.067944
            CHANNELS 3 Zrotation Xrotation Yrotation
            JOINT HandRight
            {
              OFFSET -2.793754 -1.378510 -1.181608
              CHANNELS 3 Zrotation Xrotation Yrotation
              JOINT HandTipRight
              {
                OFFSET 0.654275 -7.393239 0.315328
                CHANNELS 3 Zrotation Xrotation Yrotation
                End Site
                {
                  OFFSET 0 0 0
                }
              }
              JOINT ThumbRight
              {
                OFFSET 1.791012 -3.049403 -1.286502
                CHANNELS 3 Zrotation Xrotation Yrotation
                End Site
                {
                  OFFSET 0 0 0
                }
              }
            }
          }
        }
      }
    }
  }
  JOINT HipLeft
  {
    OFFSET -4.185657 1.366885 -8.819282
    CHANNELS 3 Zrotation Xrotation Yrotation
    JOINT KneeLeft
    {
      OFFSET -12.270001 -36.069245 -4.344236
      CHANNELS 3 Zrotation Xrotation Yrotation
      JOINT AnkleLeft
      {
        OFFSET -14.088329 -37.109324 -1.732664
        CHANNELS 3 Zrotation Xrotation Yrotation
        JOINT FootLeft
        {
          OFFSET -1.671256 -6.526013 -8.997482
          CHANNELS 3 Zrotation Xrotation Yrotation
          End Site
          {
            OFFSET 0 0 0
          }
        }
      }
    }
  }
  JOINT HipRight
  {
    OFFSET 4.947630 -0.028352 1.668903
    CHANNELS 3 Zrotation Xrotation Yrotation
    JOINT KneeRight
    {
      OFFSET -5.357930 -38.733910 4.751060
      CHANNELS 3 Zrotation Xrotation Yrotation
      JOINT AnkleRight
      {
        OFFSET -8.903750 -33.360185 5.933317
        CHANNELS 3 Zrotation Xrotation Yrotation
        JOINT FootRight
        {
          OFFSET 1.399081 -8.469557 -4.848720
          CHANNELS 3 Zrotation Xrotation Yrotation
          End Site
          {
            OFFSET 0 0 0
          }
        }
      }
    }
  }
}
MOTION
Frames: 5
Frame Time: 0.033333
-35.121356 82.389092 352.959096 -0.378101 1.653232 -36.538873 0.338063 0.112392 36.544273 0.097449 0.135384 0.003231 2.638772 -8.156113 2.831674 0.000000 0.000000 0.000000 0.120108 -3.471261 0.479697 -3.122370 4.056974 0.539376 -11.180474 2.061033 -3.691598 20.209490 6.817953 5.014129 0.000000 0.000000 0.000000 0.000000 0.000000 0.000000 8.309639 23.037529 2.575670 41.010553 49.385841 -10.666411 -20.630701 11.828008 -123.537727 -35.467273 20.410763 147.944193 0.000000 0.000000 0.000000 0.000000 0.000000 0.000000 4.019944 0.584896 36.273232 -0.354102 -0.235079 0.362063 -5.608642 -1.161382 4.234324 0.000000 0.000000 0.000000 2.235906 -0.774845 36.731343 0.257916 -2.539987 0.841013 -0.144676 3.917060 -1.402732 0.000000 0.000000 0.000000
-35.402878 82.414835 352.955226 -0.559074 1.784470 -35.290944 0.295962 0.179048 35.293893 0.056032 0.203393 -0.008001 3.171066 -9.058041 3.147819 0.000000 0.000000 0.000000 -0.005345 -3.963781 0.635213 -3.179590 4.606399 0.547609 -11.220636 1.934292 -3.946066 17.949181 7.095021 4.872407 0.000000 0.000000 0.000000 0.000000 0.000000 0.000000 9.993551 26.635508 2.740197 52.228262 54.493426 -17.050079 -44.232152 53.951424 -118.443027 -27.803799 50.351959 -179.139532 0.000000 0.000000 0.000000 0.000000 0.000000 0.000000 4.456800 1.078244 34.834799 -0.740355 -0.765259 0.618291 -5.855906 -1.419270 4.501405 0.000000 0.000000 0.000000 2.661745 -0.713332 35.527295 0.087815 -2.595381 0.846574 -0.073369 4.295365 -1.481093 0.000000 0.000000 0.000000
-35.733255 82.440678 352.883511 -0.856650 2.001910 -33.882352 0.337789 0.241322 33.885230 0.026694 0.296153 -0.020212 3.821837 -10.091076 3.501998 0.000000 0.000000 0.000000 -0.044591 -4.547852 0.790252 -3.178092 5.200478 0.542820 -11.232589 1.336730 -4.288473 15.520404 7.003142 4.622139 0.000000 0.000000 0.000000 0.000000 0.000000 0.000000 11.879428 29.621955 2.851140 66.149226 58.749676 -26.409324 -74.043138 66.098883 -100.804154 -50.059185 62.393516 -140.093340 0.000000 0.000000 0.000000 0.000000 0.000000 0.000000 5.216133 1.256152 33.358959 -1.040326 -0.805562 0.682237 -5.996127 -1.595816 4.519356 0.000000 0.000000 0.000000 3.319376 -0.707423 34.186082 -0.109414 -2.615013 0.850253 -0.258580 4.198706 -1.515707 0.000000 0.000000 0.000000
-36.050185 82.453237 352.811803 -1.188698 2.217119 -32.377167 0.374412 0.321732 32.381341 -0.042205 0.399960 -0.036988 4.691980 -11.211342 3.868879 0.000000 0.000000 0.000000 -0.002919 -5.257994 0.973978 -3.108171 5.788894 0.486118 -11.580452 0.408091 -4.786700 15.456420 7.469953 4.695210 0.000000 0.000000 0.000000 0.000000 0.000000 0.000000 14.852632 32.789764 2.887040 80.537148 59.833691 -35.874218 -83.195752 67.016512 -102.539318 -67.893110 57.616423 -112.632822 0.000000 0.000000 0.000000 0.000000 0.000000 0.000000 5.876575 1.320276 31.811738 -1.016484 -0.798185 0.701491 -6.218182 -1.476967 4.352990 0.000000 0.000000 0.000000 3.998724 -0.729059 32.750606 -0.293833 -2.627405 0.854598 -0.466578 3.940110 -1.564073 0.000000 0.000000 0.000000
-36.354625 82.465190 352.748010 -1.549018 2.425114 -30.813243 0.410338 0.402382 30.819956 -0.120883 0.495855 -0.055648 5.660339 -12.277766 4.214691 0.000000 0.000000 0.000000 0.163922 -5.948863 1.140931 -3.140526 6.150850 0.425368 -11.933713 -2.100326 -5.755741 13.222377 10.083498 4.757175 0.000000 0.000000 0.000000 0.000000 0.000000 0.000000 18.816424 36.609802 2.681849 90.211091 59.096872 -41.587374 -61.801583 60.754589 -133.044591 -66.477615 42.985574 -98.152293 0.000000 0.000000 0.000000 0.000000 0.000000 0.000000 6.511429 1.282135 30.237509 -0.860946 -0.701317 0.673660 -6.459728 -1.552537 4.211191 0.000000 0.000000 0.000000 4.684549 -0.777696 31.257396 -0.497391 -2.650056 0.857086 -0.694980 3.532731 -1.602510 0.000000 0.000000 0.000000
